name Walk2.mot
datacolumns 19
datarows 17
range 1.31500000 1.39500000
endheader

                time	   L_ground_force_vx	   L_ground_force_vy	   L_ground_force_vz	   L_ground_force_px	   L_ground_force_py	   L_ground_force_pz	   R_ground_force_vx	   R_ground_force_vy	   R_ground_force_vz	   R_ground_force_px	   R_ground_force_py	   R_ground_force_pz	   L_ground_torque_x	   L_ground_torque_y	   L_ground_torque_z	   R_ground_torque_x	   R_ground_torque_y	   R_ground_torque_z	
          1.31500000	          9.19106039	         68.11072123	         -6.48069849	         -0.06532723	          0.00000000	         -0.00814622	          0.00000000	          0.00000000	          0.00000000	          0.00000000	          0.00000000	          0.00000000	          0.00000000	          0.11805407	          0.00000000	          0.00000000	         -0.00000000	          0.00000000	
          1.32000000	          9.98099176	         98.63680384	         -9.11915413	         -0.14189247	          0.00000000	         -0.01725614	          0.00000000	          0.00000000	          0.00000000	          0.00000000	          0.00000000	          0.00000000	          0.00000000	          0.17274816	          0.00000000	          0.00000000	         -0.00000000	          0.00000000	
          1.32500000	          9.88792290	        129.41787764	        -11.43397020	         -0.20878612	          0.00000000	         -0.02538686	         -0.00000000	          0.00000000	          0.00000000	          0.00000000	          0.00000000	          0.00000000	          0.00000000	          0.23478556	          0.00000000	          0.00000000	         -0.00000000	          0.00000000	
          1.33000000	          8.54347495	        159.06494850	        -13.22051763	         -0.26387412	          0.00000000	         -0.03230625	         -0.00000000	          0.00000000	          0.00000000	          0.00000000	          0.00000000	          0.00000000	          0.00000000	          0.30161064	          0.00000000	          0.00000000	         -0.00000000	          0.00000000	
          1.33500000	          5.70366214	        186.88716265	        -14.30675513	         -0.30668692	          0.00000000	         -0.03797170	         -0.00000000	          0.00000000	          0.00000000	          0.00000000	          0.00000000	          0.00000000	          0.00000000	          0.36907392	          0.00000000	          0.00000000	          0.00000000	          0.00000000	
          1.34000000	          1.32610577	        212.83058056	        -14.55911531	         -0.33787147	          0.00000000	         -0.04246129	         -0.00000000	          0.00000000	          0.00000000	          0.00000000	          0.00000000	          0.00000000	          0.00000000	          0.43147607	          0.00000000	          0.00000000	          0.00000000	          0.00000000	
          1.34500000	         -4.44091581	        237.12710402	        -13.89284909	         -0.35875212	          0.00000000	         -0.04592026	         -0.00000000	          0.00000000	          0.00000000	          0.00000000	          0.00000000	          0.00000000	          0.00000000	          0.48148503	          0.00000000	          0.00000000	          0.00000000	          0.00000000	
          1.35000000	        -11.29411915	        260.05992281	        -12.28073440	         -0.37099505	          0.00000000	         -0.04851614	         -0.00000000	          0.00000000	         -0.00000000	          0.00000000	          0.00000000	          0.00000000	          0.00000000	          0.51093377	          0.00000000	          0.00000000	          0.00000000	          0.00000000	
          1.35500000	        -18.82970934	        281.90000868	         -9.75983506	         -0.37636931	          0.00000000	         -0.05041173	         -0.00000000	          0.00000000	         -0.00000000	         -0.00000000	          0.00000000	         -0.00000000	          0.00000000	          0.51279732	          0.00000000	          0.00000000	          0.00000000	          0.00000000	
          1.36000000	        -26.64083519	        302.88073937	         -6.44160952	         -0.37658306	          0.00000000	         -0.05175291	         -0.00000000	         -0.00000000	         -0.00000000	         -0.00000000	          0.00000000	         -0.00000000	          0.00000000	          0.48426067	          0.00000000	          0.00000000	          0.00000000	          0.00000000	
          1.36500000	        -34.42711086	        323.14648248	         -2.50955470	         -0.37316997	          0.00000000	         -0.05265816	         -0.00000000	         -0.00000000	         -0.00000000	         -0.00000000	          0.00000000	         -0.00000000	          0.00000000	          0.42944505	          0.00000000	          0.00000000	          0.00000000	          0.00000000	
          1.37000000	        -42.04915394	        342.73123251	          1.80788993	         -0.36743068	          0.00000000	         -0.05321989	         -0.00000000	         -0.00000001	         -0.00000000	         -0.00000000	          0.00000000	         -0.00000000	          0.00000000	          0.35881084	          0.00000000	          0.00000000	          0.00000000	          0.00000000	
          1.37500000	        -49.49915300	        361.66566720	          6.27424860	         -0.36040739	          0.00000000	         -0.05351224	         -0.00000000	         -0.00000001	         -0.00000000	         -0.00000000	          0.00000000	         -0.00000000	          0.00000000	          0.28666672	          0.00000000	          0.00000000	          0.00000000	          0.00000000	
          1.38000000	        -56.81429670	        380.16929296	         10.68233219	         -0.35288995	          0.00000000	         -0.05359619	         -0.00000000	         -0.00000002	         -0.00000000	         -0.00000000	          0.00000000	         -0.00000000	          0.00000000	          0.22725768	          0.00000000	          0.00000000	          0.00000000	          0.00000000	
          1.38500000	        -64.00550525	        398.75960041	         14.88334161	         -0.34545037	          0.00000000	         -0.05351927	         -0.00000000	         -0.00000003	         -0.00000001	         -0.00000000	          0.00000000	         -0.00000000	          0.00000000	          0.19025052	          0.00000000	          0.00000000	          0.00000000	          0.00000000	
          1.39000000	        -71.04193986	        418.19242323	         18.79490987	         -0.33848262	          0.00000000	         -0.05331863	         -0.00000000	         -0.00000004	         -0.00000001	         -0.00000000	          0.00000000	         -0.00000000	          0.00000000	          0.17750916	          0.00000000	          0.00000000	          0.00000000	          0.00000000	
          1.39500000	        -77.86079730	        439.29472073	         22.38475005	         -0.33223687	          0.00000000	         -0.05302098	         -0.00000000	         -0.00000005	         -0.00000001	         -0.00000000	          0.00000000	         -0.00000000	          0.00000000	          0.18355085	          0.00000000	          0.00000000	          0.00000000	          0.00000000	
